<?xml version="1.0" encoding="UTF-8"?>
<svg id="Layer_1" data-name="Layer 1" xmlns="http://www.w3.org/2000/svg" viewBox="0 0 886.7 342.95">
  <defs>
    <style>
      .cls-1 {
        fill: #fff;
      }

      .cls-2 {
        fill: none;
        stroke: #fff;
        stroke-miterlimit: 10;
        stroke-width: 14px;
      }

      .cls-3 {
        fill: #22b573;
      }
    </style>
  </defs>
  <g>
    <path class="cls-1" d="M17.47,215.85v-90C44.67,35.61,140.12-12.7,229.77,17.84c118.06,40.22,147.81,193.23,53.96,276.04-89.29,78.79-234.37,35.88-266.27-78.03ZM168.31,33.86C77.16,38.55,14.68,125.71,42.73,214.06c27.94,88.02,137.3,122.75,212.82,70.6,58.12-40.13,76.62-120.17,41.16-181.83-23.79-41.37-72.23-70.34-120.4-68.97,2.77,12.08,7.99,23.16,13.13,34.35,20.94,45.59,45.32,89.72,66.97,134.97,3.27,7.07,2.58,14.99-2.17,21.17l-18.97,19.5c1.01-12.57-3.22-24.24-7.83-35.68l-54.11-108.32c-18.11,42.79-42.4,83.02-57.3,127.15l-2.15,16.84c-8.63-11.05-24.72-20.05-21.26-36.27,19.51-46.61,44.21-91.62,63.89-138.04,4.88-11.52,9.75-23.24,11.81-35.67Z"/>
    <path d="M168.31,33.86c-2.06,12.43-6.93,24.15-11.81,35.67-19.68,46.43-44.38,91.43-63.89,138.04-3.46,16.23,12.63,25.23,21.26,36.27l2.15-16.84c14.9-44.13,39.18-84.36,57.3-127.15l54.11,108.32c4.61,11.44,8.83,23.1,7.83,35.68l18.97-19.5c4.75-6.18,5.44-14.11,2.17-21.17-21.65-45.25-46.03-89.38-66.97-134.97-5.14-11.19-10.36-22.27-13.13-34.35,48.17-1.37,96.61,27.6,120.4,68.97,35.46,61.66,16.95,141.7-41.16,181.83-75.52,52.15-184.88,17.41-212.82-70.6C14.68,125.71,77.16,38.55,168.31,33.86ZM145.32,203.86c-1.97-.33-2.83,1.31-3.95,2.52-1.76,1.91-13.12,16.68-12.92,17.83,15.11,19.03,29.55,38.93,40.04,60.96l6.8,18.67c7.09-31.18,28.27-56.37,46.9-81.36l-16.41-18.61-30.97,42.96-29.49-42.98Z"/>
    <path class="cls-3" d="M145.32,203.86l29.49,42.98,30.97-42.96,16.41,18.61c-18.63,24.99-39.8,50.18-46.9,81.36l-6.8-18.67c-10.49-22.03-24.93-41.93-40.04-60.96-.2-1.15,11.16-15.92,12.92-17.83,1.12-1.22,1.98-2.85,3.95-2.52Z"/>
    <circle class="cls-2" cx="174.81" cy="171.48" r="164.48"/>
  </g>
  <path class="cls-1" d="M578.91,228.29v-30.87h-25.72v-18.37l47.77.73v61c-8.36,2.85-15.76,7.45-24.41,9.76-30.05,8.04-59.2,1.72-78.46-23.37-27.6-35.96-10.71-93.99,34.66-104.95,22.14-5.35,48.76-1.69,65.94,13.94l-11.67,16.84c-21.35-16.29-55.08-18.78-70.42,6.71-13.52,22.46-10.63,52.67,12.85,66.97,15.15,9.23,33.51,7.81,49.48,1.6Z"/>
  <path class="cls-1" d="M682.53,123.19c22.42-.22,42.51,20.87,34.37,43.55-3.11,8.65-9.4,13.95-16.73,18.91,22.85,4.79,30.6,32.55,16.15,50.33-6.46,7.96-21.3,15.18-31.59,15.08-18.94-.02-38.29-.26-58.06-.73-.64-41.11-.64-85.02,0-126.41,18.98-.47,37.6-.72,55.85-.73Z"/>
  <path class="cls-1" d="M682.53,123.19c-.13,0-1.13.79-2.49.79-17.79-.01-35.59-.1-53.37-.05v126.41c18.52.05,37.05-.04,55.57-.05,1.35,0,2.35.79,2.49.79l-58.79.73V122.46l56.59.73Z"/>
  <path class="cls-1" d="M458.75,251.07c-.13,0-.6.75-1.11.42l-11.85-30.45-56.88-.15-1.16.49-9.54,29.62-24.91.8,53.25-129.39c6.55.68,14.26-.72,20.65.01,1.05.12,1.94.07,2.47,1.21l51.34,124.31.9,3.87c-.27.36-.94-.73-1.09-.73-7.24,0-14.86.33-22.05,0Z"/>
  <path class="cls-1" d="M769.98,123.19l38.22,69.08,38.57-69.08h24.62l9.55,128.61h-22.78l-6.62-93.33-42.63,69.82c-.69.48-3.92-4.75-4.41-5.5-13.45-20.24-23.92-41.87-36.59-61.89-.41-.65-.69-1.63-1.61-1.69l-7.72,91.86h-21.68l10.29-127.88h22.78Z"/>
</svg>