<?xml version="1.0" encoding="UTF-8"?>
<svg id="Layer_1" xmlns="http://www.w3.org/2000/svg" version="1.1" viewBox="0 0 886.7 343">
  <!-- Generator: Adobe Illustrator 29.6.1, SVG Export Plug-In . SVG Version: 2.1.1 Build 9)  -->
  <defs>
    <style>
      .st0, .st1 {
        fill: #fff;
      }

      .st2 {
        fill: none;
        stroke: #fff;
        stroke-miterlimit: 10;
        stroke-width: 14px;
      }

      .st1 {
        font-family: Consolas, Consolas;
        font-size: 190px;
        letter-spacing: 0em;
      }

      .st3 {
        fill: #22b573;
      }
    </style>
  </defs>
  <g>
    <path class="st0" d="M17.5,215.9v-90C44.7,35.6,140.1-12.7,229.8,17.8c118.1,40.2,147.8,193.2,54,276-89.3,78.8-234.4,35.9-266.3-78h0ZM168.3,33.9C77.2,38.5,14.7,125.7,42.7,214.1c27.9,88,137.3,122.8,212.8,70.6,58.1-40.1,76.6-120.2,41.2-181.8-23.8-41.4-72.2-70.3-120.4-69,2.8,12.1,8,23.2,13.1,34.3,20.9,45.6,45.3,89.7,67,135,3.3,7.1,2.6,15-2.2,21.2l-19,19.5c1-12.6-3.2-24.2-7.8-35.7l-54.1-108.3c-18.1,42.8-42.4,83-57.3,127.2l-2.2,16.8c-8.6-11.1-24.7-20.1-21.3-36.3,19.5-46.6,44.2-91.6,63.9-138,4.9-11.5,9.8-23.2,11.8-35.7h0Z"/>
    <path d="M168.3,33.9c-2.1,12.4-6.9,24.2-11.8,35.7-19.7,46.4-44.4,91.4-63.9,138-3.5,16.2,12.6,25.2,21.3,36.3l2.2-16.8c14.9-44.1,39.2-84.4,57.3-127.2l54.1,108.3c4.6,11.4,8.8,23.1,7.8,35.7l19-19.5c4.8-6.2,5.4-14.1,2.2-21.2-21.6-45.2-46-89.4-67-135-5.1-11.2-10.4-22.3-13.1-34.3,48.2-1.4,96.6,27.6,120.4,69,35.5,61.7,17,141.7-41.2,181.8-75.5,52.1-184.9,17.4-212.8-70.6C14.7,125.7,77.2,38.5,168.3,33.9ZM145.3,203.9c-2-.3-2.8,1.3-3.9,2.5-1.8,1.9-13.1,16.7-12.9,17.8,15.1,19,29.6,38.9,40,61l6.8,18.7c7.1-31.2,28.3-56.4,46.9-81.4l-16.4-18.6-31,43-29.5-43h0Z"/>
    <path class="st3" d="M145.3,203.9l29.5,43,31-43,16.4,18.6c-18.6,25-39.8,50.2-46.9,81.4l-6.8-18.7c-10.5-22-24.9-41.9-40-61-.2-1.1,11.2-15.9,12.9-17.8,1.1-1.2,2-2.9,3.9-2.5h0Z"/>
    <circle class="st2" cx="174.8" cy="171.5" r="164.5"/>
  </g>
  <text class="st1" transform="translate(375.4 241.1)"><tspan x="0" y="0">AGBM</tspan></text>
</svg>